<?xml version="1.0" encoding="UTF-8"?>
<svg id="_레이어_1" xmlns="http://www.w3.org/2000/svg" version="1.1" viewBox="0 0 50 21.4022516">
  <!-- Generator: Adobe Illustrator 29.5.0, SVG Export Plug-In . SVG Version: 2.1.0 Build 137)  -->
  <defs>
    <style>
      .st0 {
        fill: #25b6b6;
      }
    </style>
  </defs>
  <g>
    <path class="st0" d="M9.8531933,15.2060679c-.0107946,1.831234-.4871464,3.2764816-1.4292107,4.3355904-.9422178,1.0594177-2.4035034,1.5889702-4.3837032,1.5889702H0v-11.8492756h4.0402794c1.9801993.0107937,3.4414854.5455914,4.3837032,1.6050091.9420633,1.0594177,1.418416,2.4991131,1.4292107,4.319706ZM7.1702623,15.2060679c0-1.0220985-.2050982-1.8443413-.6148319-2.4673462-.4098878-.6226959-1.0299625-.9341984-1.8603792-.9341984h-1.9004734v6.8029346h1.9004734c.8304162,0,1.450491-.3034821,1.8603792-.9101429.4097338-.6069679.6148319-1.4375381.6148319-2.4912472Z"/>
    <path class="st0" d="M15.5065002,21.3381937c-.7025766,0-1.3468628-.1088715-1.9322405-.3272324-.5856867-.2180519-1.0914927-.5295525-1.5172634-.9342003-.4152851-.404644-.7402039-.8888626-.9741392-1.4532661-.2343979-.5644035-.3514423-1.197897-.3514423-1.9004726,0-.7129097.1250639-1.3571949.3753452-1.9320869.2499733-.574892.5933971-1.0594158,1.0299625-1.4532661.4259253-.3938503.928956-.6973343,1.5093994-.9101429.5801344-.2131176,1.2000551-.319521,1.8603792-.319521.6492205,0,1.2638979.1064034,1.8443403.319521.5801353.2128086,1.0884075.5162926,1.5251274.9101429.4256172.3938503.7667274.878376,1.0220985,1.4532661s.3833637,1.2191772.3833637,1.9320869c0,.7025776-.1199741,1.3360691-.3593082,1.9004726-.2396412.5644035-.5671806,1.0486221-.9823112,1.4532661-.4259262.404644-.9317322.7161484-1.5171089.9342003-.5856857.2183609-1.2244205.3272324-1.9162025.3272324ZM15.4744244,18.8150233c.5323296,0,1.0060596-.1730232,1.4214993-.5190697.4151306-.3457375.6226959-.8703556.6226959-1.5729332,0-.6708107-.2075653-1.1869469-.6226959-1.5490303-.4154396-.3617744-.8891697-.5428162-1.4215002-.5428162-.5215349,0-.9820042.1810417-1.3814058.5428162-.3990936.3620834-.5986395.8782215-.5986395,1.5490303,0,.7025776.1995468,1.2271957.5986395,1.5729332.3994017.3460464.85987.5190697,1.3814068.5190697Z"/>
    <path class="st0" d="M21.0796185,16.7069853c0-1.4688416.439188-2.6161575,1.3175621-3.4411774s2.0679455-1.2376823,3.5693245-1.2376823c.7025776,0,1.3653679.1412563,1.9880638.4231491.6230049.2822018,1.1898785.7266331,1.7009258,1.333601l-1.6451035,1.8844357c-.37257-.3938503-.7105961-.6732769-1.0137711-.8385887-.303484-.1650047-.6630993-.2473507-1.0782299-.2473507-.2661648.0104866-.5243111.066618-.7744389.1674709-.2504349.101469-.4712639.2476597-.6627903.439188-.1915283.1813507-.3460445.4021778-.4629364.6627903-.1175079.260767-.1757984.5454369-.1757984.8541641,0,.6495285.2128086,1.1685963.6387348,1.5572033.4256172.388607.9153862.5829086,1.469305.5829086.4472065,0,.8330383-.0959167,1.1578026-.2874451.3247643-.1918373.6467533-.4576912.9662743-.7984962l1.6287575,1.8683968c-.4789734.6282463-1.0433788,1.0806961-1.6929073,1.3573494-.6492214.2769585-1.3308239.4151306-2.0438881.4151306-1.469305.0107956-2.6511631-.3778114-3.5452671-1.1658211-.894413-.7877007-1.3416195-1.9640083-1.3416195-3.5292263Z"/>
    <path class="st0" d="M33.5357056,18.4797724v2.650856h-2.7788486v-11.8492756h2.7788486v5.63727l2.3951759-2.5709743h3.2898979l-3.1619034,3.3855076,3.577034,5.3974762h-3.2417831l-2.1879196-3.3855057s-.6705017.7346535-.6705017.7346458Z"/>
    <path class="st0" d="M43.1333771,11.4211596h-2.7628098v-2.1398067h2.7628098v2.1398067ZM40.3705635,12.3476485h2.7628098v8.7829838h-2.7628098v-8.7829838Z"/>
    <path class="st0" d="M48.1476402,17.4416388c0,.3408031.0262146.5964794.0798798.7664204.0530472.1705551.1699371.2874451.3512878.3515968.11689.0425606.2417984.0586014.3750381.0478058.1332359-.0104866.3275414-.0638428.5829086-.1597595l.4632454,2.4432907c-.4151306.1918373-.9209366.3142776-1.5171089.3673248-.5964813.0533562-1.1285019-.016037-1.5969887-.2075653-.5536118-.2236023-.9422188-.5853767-1.1658211-1.0859413-.2236023-.5002556-.3352509-1.1710625-.3352509-2.0121193v-3.113945h-1.4372292v-2.4910946h1.4372292v-3.0662937h2.7628098v3.0662937h1.788517v2.4910946h-1.788517s0,2.6028957,0,2.6028919Z"/>
  </g>
  <g>
    <path class="st0" d="M14.0720711,9.6896437l4.0537148-4.0537243c.0753231-.075325.1788807-.1187935.2853451-.115181,2.4527779.0832291,4.4389038,1.9898167,4.6472187,4.4085922.0194778.22616-.1600552.4211426-.3870525.4211445-1.4311028.0000019-6.2731056.0000019-8.3268213.0000019-.3448763,0-.5162687-.4169693-.2724047-.6608334Z"/>
    <path class="st0" d="M12.350791,10.2374247l4.6789103-4.6789093c.0751209-.0751209.1183796-.1784668.1151962-.2846565C17.0610123,2.4760645,14.8758602.2110508,12.1117744.0011462c-.2257051-.0171404-.4199314.1601295-.4199314.3864841v9.576849c0,.3438931.415781.5161152.6589479.2729454Z"/>
  </g>
</svg>