<?xml version="1.0" encoding="UTF-8"?>
<svg id="_레이어_1" xmlns="http://www.w3.org/2000/svg" version="1.1" viewBox="0 0 479.9999953 437.0709318">
  <!-- Generator: Adobe Illustrator 29.5.0, SVG Export Plug-In . SVG Version: 2.1.0 Build 137)  -->
  <defs>
    <style>
      .st0 {
        fill: #25b6b6;
      }
    </style>
  </defs>
  <path class="st0" d="M100.5027084,409.1350034l171.1638641-171.1642151c3.180481-3.180481,7.5530701-5.0159302,12.0483704-4.8633728,103.5659485,3.5142517,187.4280701,84.0178833,196.2239075,186.1482239.8224487,9.549408-6.7581177,17.7823486-16.3428955,17.7823486-60.4268494.000061-264.8753052.000061-351.5912781.000061-14.5620422,0-21.7989044-17.6061096-11.5019989-27.9030457h.0000305Z"/>
  <path class="st0" d="M27.8234634,432.2644895l197.5620422-197.5620422c3.1719055-3.1719055,4.9984741-7.5355835,4.8640442-12.0192871C226.7075577,104.549249,134.4418564,8.9114164,17.7311783.0483946,8.2010193-.6753298,0,6.8096784,0,16.3672727v404.3723755c0,14.5205078,17.5559082,21.7924194,27.8234634,11.5248413Z"/>
</svg>