<?xml version="1.0" encoding="UTF-8"?>
<svg id="_레이어_1" data-name="레이어_1" xmlns="http://www.w3.org/2000/svg" version="1.1" viewBox="0 0 600 600">
  <!-- Generator: Adobe Illustrator 29.1.0, SVG Export Plug-In . SVG Version: 2.1.0 Build 142)  -->
  <path d="M160.5027016,490.5995786l171.1638523-171.164208c3.1804777-3.1804843,7.5530684-5.0159169,12.0483605-4.8633801,103.565941,3.5142562,187.4280748,84.017887,196.2239431,186.1482293.8224319,9.549399-6.7581246,17.7823407-16.3428737,17.7823475-60.4268375.0000429-264.8753165.0000523-351.5912892.0000543-14.5620377.0000003-21.7988979-17.6061166-11.5019929-27.903043Z" fill="#25b6b6"/>
  <path d="M87.8234593,513.7290387l197.5620442-197.5620442c3.1718957-3.1718957,4.9984762-7.5355691,4.8640417-12.0192921-3.5419832-118.1339024-95.8076937-213.7717489-212.5183647-222.6347725-9.530156-.7237213-17.7311804,6.761284-17.7311804,16.3188803v404.3723742c0,14.5205063,17.5559108,21.7924027,27.8234593,11.5248542Z" fill="#25b6b6"/>
</svg>